<?xml version="1.0" ?><svg id="Layer_1" style="enable-background:new 0 0 64 64;" version="1.1" viewBox="0 0 64 64" xml:space="preserve" xmlns="http://www.w3.org/2000/svg" xmlns:xlink="http://www.w3.org/1999/xlink"><style type="text/css">
	.st0{fill:#62BEE7;}
	.st1{fill:#474E5E;}
	.st2{fill:#F3EEE4;}
	.st3{fill:#FFFFFF;}
	.st4{fill:#E8DCCA;}
	.st5{opacity:0.1;fill:#231F20;}
	.st6{fill:#506268;}
	.st7{fill:#EB5151;}
	.st8{fill:#C64444;}
	.st9{fill:#9CCB5B;}
	.st10{fill:#404A4C;}
	.st11{fill:#676767;}
	.st12{fill:#E0E1E5;}
	.st13{fill:#9D9EA0;}
	.st14{fill:#B3B4B7;}
	.st15{opacity:0.1;}
	.st16{fill:#231F20;}
	.st17{fill:#FACC20;}
	.st18{fill:#FDEF34;}
	.st19{fill:#F7A90B;}
	.st20{fill:#20B8EA;}
	.st21{fill:#00A8EA;}
	.st22{fill:#33D3F4;}
	.st23{opacity:0.25;fill:#FFFFFF;}
	.st24{fill:#CACBCE;}
	.st25{fill:#2E3545;}
	.st26{fill:#8DAF4A;}
	.st27{fill:#F9C2AF;}
	.st28{fill:#AFDDF4;}
	.st29{fill:#677177;}
	.st30{fill:#FFEDB3;}
	.st31{fill:#695652;}
	.st32{fill:#30A7BF;}
	.st33{fill:#4D5556;}
	.st34{opacity:0.35;}
	.st35{fill:#FFCB04;}
	.st36{fill:#99E9FA;}
	.st37{opacity:0.2;}
	.st38{opacity:3.000000e-02;}
	.st39{fill:#9ECA5B;}
	.st40{fill:#98BA56;}
	.st41{fill:#40EEFF;}
	.st42{fill:#FF6A52;}
	.st43{opacity:0.1;fill:#FFFFFF;}
	.st44{opacity:0.4;}
	.st45{fill:#57606D;}
	.st46{fill:#BACA5B;}
	.st47{opacity:0.25;}
	.st48{opacity:5.000000e-02;fill:#231F20;}
	.st49{opacity:0.2;fill:#FFFFFF;}
	.st50{opacity:0.3;}
	.st51{fill:#FFD82F;}
	.st52{fill:#F4C121;}
	.st53{fill:#EF9D0A;}
	.st54{fill:#F9E532;}
	.st55{fill:#F4C01E;}
	.st56{fill:#FFE14D;}
	.st57{fill:#B7C156;}
	.st58{fill:#DBA92C;}
	.st59{fill:#363D4D;}
	.st60{fill:#3F4656;}
	.st61{fill:#463E33;}
	.st62{fill:none;}
	.st63{opacity:4.000000e-02;}
	.st64{fill:#4DB6AC;}
	.st65{fill:#CADE49;}
	.st66{fill:#9FD343;}
	.st67{fill:#AAD643;}
	.st68{fill:#82C736;}
	.st69{opacity:0.3;fill:#FFFFFF;}
	.st70{fill:#FFD640;}
	.st71{opacity:0.5;}
	.st72{opacity:0.6;}
</style><g><circle class="st21" cx="32" cy="32" r="32"/><g><g><path class="st18" d="M23.2,35.9c-0.7,1.6-1.2,3.1-1.6,4.6h-9v-4.6H23.2z"/></g><g><path class="st19" d="M21.3,43.7c0,0.5,0,1,0.1,1.5h-11v-4.6h11.3C21.4,41.6,21.3,42.7,21.3,43.7z"/></g><g><path class="st18" d="M22.8,49.8H12.7v-4.6h8.6C21.5,47,22,48.5,22.8,49.8z"/></g><g><path class="st19" d="M28.3,54.4h-18v-4.6h12.4C24,51.9,25.9,53.4,28.3,54.4z"/></g><g><path class="st3" d="M42.1,22.7h-9.3c-0.9,0-1.5-0.7-1.5-1.5v0c0-0.9,0.7-1.5,1.5-1.5h9.3c0.9,0,1.5,0.7,1.5,1.5v0     C43.6,22,43,22.7,42.1,22.7z"/></g><g><path class="st8" d="M47.5,8.5l-7.8,11.1h-4.5L27.5,8.5l4.7,1.7c2.4,0.9,5.1,0.6,7.3-0.8l0,0c1.8-1.1,3.9-1.6,5.9-1.2L47.5,8.5z"/></g><g><path class="st8" d="M42,22.7h-9.2c-5.4,4.3-11.6,14.2-11.6,21c0,8.9,7.2,12.3,16.2,12.3c8.9,0,16.2-3.4,16.2-12.3     C53.6,36.9,47.4,27,42,22.7z"/></g><path class="st5" d="M47.2,28.2c2.4,4,4,8.3,4,11.8C51.2,49,44,52.4,35,52.4c-5.3,0-10-1.2-13-4c2.1,5.5,8.2,7.6,15.4,7.6    c8.9,0,16.2-3.4,16.2-12.3C53.6,39.1,50.7,33,47.2,28.2z"/><circle class="st43" cx="33.9" cy="35.9" r="8"/><g><g><path class="st18" d="M42,40.2c-0.2-0.5-0.8-1.9-3.9-2.6v-3.9c0.8,0.2,1.3,0.8,1.5,1.5c0.2,0.7,0.6,1,1.2,1c0.3,0,2.3-0.6,0.3-3      c-0.3-0.4-0.9-1.1-2.9-1.3v-1.5h-1.2V32c-3.6,0.4-4,2.7-4,3.8c0,3.2,3.1,3.7,4,4v4.3c-1.5-0.4-1.8-1.9-2-2.4      c-0.2-0.7-0.8-0.7-1.1-0.7c-0.9,0-1.2,0.9-1.2,1.2c0,0.4,0.2,2.3,2.4,3.4c0.5,0.3,1.2,0.4,1.9,0.5l0,1.5h1.2V46      c0.9-0.1,1.6-0.3,2.3-0.7C42.1,44.2,42.7,42.2,42,40.2z M36.9,37.3c-0.9-0.4-1.6-0.6-1.6-1.8c0-0.5,0.2-1.4,1.6-1.8V37.3z       M38.1,44.2v-4.1c1.9,0.6,1.9,1.4,1.9,2C40,42.6,39.9,43.7,38.1,44.2z"/></g></g></g></g></svg>